<?xml version="1.0" standalone="no"?>
<!DOCTYPE svg PUBLIC "-//W3C//DTD SVG 20010904//EN"
 "http://www.w3.org/TR/2001/REC-SVG-20010904/DTD/svg10.dtd">
<svg version="1.0" xmlns="http://www.w3.org/2000/svg"
 width="512.000000pt" height="512.000000pt" viewBox="0 0 512.000000 512.000000"
 preserveAspectRatio="xMidYMid meet">

<g transform="translate(0.000000,512.000000) scale(0.100000,-0.100000)"
fill="#000000" stroke="none">
<path d="M198 5104 c-15 -8 -32 -23 -38 -34 -7 -12 -10 -828 -10 -2513 l0
-2494 24 -26 c13 -14 35 -29 48 -32 12 -3 848 -4 1856 -3 l1834 3 24 28 24 28
0 1228 0 1227 291 245 c160 134 348 290 418 347 227 185 257 216 281 280 26
68 24 166 -5 222 -28 56 -230 303 -267 326 -77 51 -102 59 -178 59 -98 0 -112
-8 -340 -194 -102 -83 -188 -151 -192 -151 -5 0 -8 317 -8 704 l0 705 -24 28
-24 28 -1844 2 c-1613 2 -1846 0 -1870 -13z m3562 -908 l0 -724 -232 -190
-231 -191 -27 29 c-15 16 -42 31 -61 35 -19 3 -233 5 -476 3 -428 -3 -442 -4
-469 -24 -49 -36 -55 -95 -15 -145 l19 -24 432 -5 432 -5 -148 -122 -149 -123
-283 0 -283 0 -24 -24 c-47 -47 -43 -112 9 -150 24 -18 46 -22 180 -26 l152
-5 -250 -206 -251 -207 -94 -202 c-87 -184 -97 -201 -115 -194 -12 5 -212 10
-446 11 -411 3 -426 3 -458 -17 -18 -11 -37 -32 -42 -46 -13 -34 -13 -844 0
-878 5 -14 24 -35 42 -46 32 -19 51 -20 451 -20 360 0 422 2 448 16 53 27 59
59 59 299 0 118 1 215 3 215 2 0 118 29 258 65 l254 65 383 0 c408 0 426 2
452 49 18 35 12 88 -14 118 l-24 28 -208 5 -207 5 458 385 c253 212 463 387
467 388 4 2 8 -478 8 -1067 l0 -1071 -1705 0 -1705 0 0 2360 0 2360 1705 0
1705 0 0 -724z m798 -413 c19 -18 163 -196 195 -243 21 -30 22 -69 3 -95 -8
-11 -41 -42 -74 -68 l-61 -48 -141 176 c-159 198 -154 177 -58 250 65 49 103
57 136 28z m-238 -398 c78 -97 140 -180 138 -184 -4 -11 -1839 -1551 -1848
-1551 -5 0 -252 301 -288 351 -11 16 58 76 659 571 370 304 789 650 933 770
144 119 262 217 263 217 1 1 66 -78 143 -174z m-2006 -1692 l107 -132 -38 -10
c-293 -75 -355 -91 -363 -91 -10 0 8 41 104 244 37 78 70 135 75 130 4 -5 56
-68 115 -141z m-589 -488 l0 -300 -302 -3 -303 -2 0 305 0 305 303 -2 302 -3
0 -300z"/>
<path d="M810 4613 c-14 -3 -37 -16 -52 -31 l-28 -26 0 -274 0 -274 29 -29 29
-29 542 0 542 0 29 29 c31 31 39 83 19 122 -26 48 -38 49 -530 49 l-460 0 0
135 0 135 1130 0 1130 0 0 -135 0 -134 -256 -3 -256 -3 -29 -33 c-32 -36 -36
-69 -15 -111 26 -49 43 -51 382 -51 l316 0 29 29 29 29 0 275 0 274 -25 25
c-14 14 -42 28 -63 32 -42 7 -2453 6 -2492 -1z"/>
<path d="M2245 4141 c-32 -13 -55 -46 -62 -84 -5 -32 -1 -41 30 -72 42 -42 89
-47 130 -15 86 68 3 212 -98 171z"/>
<path d="M985 3341 c-11 -5 -29 -19 -40 -31 -19 -21 -20 -38 -23 -451 -3 -478
-3 -477 63 -505 46 -19 820 -20 875 -1 69 24 70 30 70 490 0 448 -2 462 -59
491 -26 14 -87 16 -448 15 -230 0 -427 -4 -438 -8z m740 -496 l0 -300 -300 0
-300 0 -3 303 -2 302 302 -2 303 -3 0 -300z"/>
<path d="M2290 1067 c-44 -15 -76 -70 -66 -111 4 -15 18 -39 31 -52 l24 -24
480 0 479 0 26 31 c37 44 36 96 -5 135 l-30 29 -452 2 c-333 2 -461 -1 -487
-10z"/>
</g>
</svg>
